<svg width="512" height="512" viewBox="0 0 512 512" fill="none" xmlns="http://www.w3.org/2000/svg">
<path d="M272.04 149.48L53 194.36C53 194.36 19.4 224.64 17.48 274.96C16.56 299.4 20.64 348 65.04 389.48C99.56 421.72 157.32 447.72 253.52 449.8C342.8 451.72 402.28 423.16 438.08 392.88C485.88 352.48 493.36 303.96 492.36 271.88C490.76 221.16 450.56 192.68 447 188.24C443.44 183.8 272.04 149.48 272.04 149.48Z" fill="#D4D4D3"/>
<path d="M252.36 428.96C411.72 428.96 486 341.48 484.24 260.6C482.44 178.52 369.36 120.12 255.36 122.2C56.44 125.8 28.88 218.68 27.68 269C26.28 328.32 80.4 428.96 252.36 428.96Z" fill="#F7F6F5"/>
<path d="M48.04 252.2C36.68 299.56 72 406.8 254.76 406.8C424.32 406.8 468.04 309.16 468.04 261.8C468.04 213.28 422.52 128.2 248.16 137.76C81.56 146.92 54.16 226.72 48.04 252.2Z" fill="#DF7F14"/>
<path d="M371 189.72C372.8 193.28 385.84 196.68 395.68 199.08C405.52 201.48 418.92 204.12 421.8 198.6C424.68 193.08 415.32 178.96 404.08 172.96C392.8 166.96 382.16 173.32 379.64 175.36C375.8 178.48 368.36 184.48 371 189.72Z" fill="#FF5119"/>
<path d="M64.2 253.04C58.12 253.04 51.08 267.44 57.12 281.56C63.16 295.68 71.24 300.72 74.04 308.04C76.8 315.36 79.84 333 92.44 345.4C105.04 357.76 123.24 359.52 130.8 362.04C138.36 364.56 158.56 381 191.12 386C227.2 391.56 277.16 381.96 276.4 374.4C275.64 366.88 222.64 360 212.8 357.76C202.96 355.52 167.12 349.68 141.16 336.08C119.68 324.8 102.32 312.36 83.88 284.84C70.68 265.12 67.72 253.04 64.2 253.04Z" fill="#F5B03E"/>
<path d="M177.12 89.8796L155.12 108.68L121.64 121.36L111.92 150.12C111.92 150.12 95.92 161.2 95.24 165.4C94.6 169.6 85.08 204.48 85.08 204.48C85.08 204.48 82.6 218.04 82.8 224.16C83 230.28 105.48 276.44 180.2 289.56C254.92 302.68 302.84 286.48 335.52 268.08C366.52 250.6 372.16 231.88 372.16 231.88L370.56 199C370.56 199 360.48 160.44 356.6 151.8C352.72 143.16 323.52 111.28 321.68 110.76C319.84 110.24 282.24 86.9196 282.24 86.9196L227.2 75.5996L177.12 89.8796ZM63.4 270.48C59.56 272.32 61.88 280.52 66.92 287.84C71.96 295.16 76.28 298.36 79.96 309.56C83.64 320.76 91.32 340.12 105.36 348.16C119.4 356.2 127.76 349.48 128.08 345.16C128.56 338.68 120.4 338.16 105.84 323.6C91.2 308.96 80.6 290.84 75.08 282.16C71.76 276.88 67.24 268.64 63.4 270.48ZM156.28 349.32C151.28 346.32 143.76 354.32 150.08 365.84C156.44 377.36 167.28 374.68 167.96 370.68C169.04 364.16 162.8 362.84 160.76 358.8C158.8 354.84 161.68 352.56 156.28 349.32Z" fill="#FEFEFE"/>
<path d="M117.8 154.28C117.8 154.28 105.68 158.36 101.4 170.52C97.08 182.68 97.04 198.8 97.04 198.8C97.04 198.8 89.6 204.28 86.44 212.56C83.12 221.28 84.36 228 83 227.72C79.96 227.08 77.84 213.68 78.88 207C80.24 198.44 83.92 195.08 83.92 195.08C83.92 195.08 81.36 176.32 88.28 162.6C95.16 148.88 106.64 142 106.64 142C106.64 142 111 123.32 122.32 114C133.64 104.68 146.48 103.12 146.48 103.12C146.48 103.12 151.08 89.2805 165.44 81.3205C179.84 73.3605 195.56 77.2005 195.56 77.2005C195.56 77.2005 209.88 65.4805 229.6 65.4805C249.28 65.4805 258.68 75.7605 258.68 75.7605C258.68 75.7605 275.56 73.1605 288.04 79.5605C300.52 85.9605 307.6 96.9605 307.6 96.9605C307.6 96.9605 321 99.3605 330.96 109.08C341.44 119.28 345.48 131.92 345.48 131.92C345.48 131.92 363.48 141.84 369.56 156.72C376.96 174.88 372.16 192.8 372.16 192.8C372.16 192.8 379.72 202.12 378.48 215.68C377.28 229.24 370.56 241.48 367.76 240.56C367.16 240.36 370.2 222.24 367.68 213.12C365.64 205.72 357.8 194.48 357.8 194.48C357.8 194.48 358.92 173.6 352.32 161.76C345.72 149.96 333.52 146.08 333.52 146.08C333.52 146.08 328.76 130.56 319.68 122.44C310.6 114.28 300.16 113.64 300.16 113.64C300.16 113.64 290.92 99.6405 280.2 95.6005C269.48 91.5605 258.32 93.4005 258.32 93.4005C258.32 93.4005 243.68 84.0805 229.2 84.1605C213.24 84.2405 201.52 94.6805 201.52 94.6805C201.52 94.6805 187.88 90.1205 174.92 98.9605C161.96 107.84 158.36 118.16 158.36 118.16C158.36 118.16 143.24 119.4 133.44 127.96C123.64 136.52 117.8 154.28 117.8 154.28Z" fill="#B0B0B0"/>
<path d="M292.72 136.8C285.68 136.92 285.24 146.64 281.88 152.52C278.88 157.76 267.6 160.36 272.08 167.84C276.08 174.52 290.88 170.96 296.52 159.16C300.48 150.92 301.68 136.68 292.72 136.8ZM321.92 172.16C315.12 172.88 317.8 181.92 315.48 188.88C313.16 195.84 304.48 202.2 309.32 206.96C314.16 211.72 325.44 203.96 328.84 191.32C332.24 178.68 327.48 171.56 321.92 172.16ZM285 197.48C277.28 197.32 278.76 205.44 274.08 212.32C269.4 219.16 263.08 221.6 266.08 226.44C269.08 231.28 280.28 232.12 287.08 219.44C293.56 207.28 290.88 197.6 285 197.48ZM291.68 244.68C286.32 253.36 277.2 252.44 280.08 259.8C283.04 267.36 296.52 264.2 303.04 254.24C308.52 245.8 312.8 231.64 303.36 231.2C295.48 230.88 296.04 237.64 291.68 244.68ZM240.48 239.4C234.88 239.96 234.84 246.92 230.84 252.08C226.2 258.12 217.4 259.24 220.48 266.44C223.56 273.64 237.2 272.72 244.52 262.44C250.68 253.84 251.12 238.36 240.48 239.4Z" fill="#D4D4D3"/>
<path d="M87.8 251.32C84.08 252.44 79.68 263.76 80.6 267.84C81.8 273.12 93.52 283.88 100.24 283.64C106.96 283.4 121.08 274.52 122.52 270.96C123.96 267.36 122.76 259.68 121.08 257.56C119.4 255.4 113.64 249.4 110.28 249.4C106.92 249.4 92.6 249.88 87.8 251.32Z" fill="#FF8E00"/>
<path d="M103.6 285.56C99.84 291.2 104.56 298.48 108.4 303.04C112.24 307.6 121.32 319.48 138.84 317.64C159.68 315.48 166.88 294.16 166.88 285.04C166.88 275.92 164 270.2 157.04 271.64C147.96 273.52 147.92 279.8 137.88 282.2C127.8 284.6 108.88 277.68 103.6 285.56Z" fill="#FCC219"/>
<path d="M164.24 310.24C163.6 315.96 163.52 328.44 168.8 330.36C174.08 332.28 196.12 330.6 199.96 329.4C203.8 328.2 205.24 319.801 202.84 316.481C200.44 313.121 183.92 299.961 177.2 300.201C170.48 300.441 164.48 308.08 164.24 310.24Z" fill="#FF8E00"/>
<path d="M210.96 337.08C215.28 339.24 219.12 355.52 217.92 359.36C216.72 363.2 212.4 370.64 210.24 371.32C208.08 372.04 188.92 372.28 181 371.08C174.12 370.04 166.4 361.96 167.12 351.44C167.84 340.88 175.52 337.08 186.76 336.12C198 335.16 210.96 337.08 210.96 337.08ZM236.84 298.52C229.96 299.6 216 310.72 215.52 320.08C215.04 329.44 222.24 336.36 227.96 336.36C233.72 336.36 256.24 313.12 254.8 308.8C253.36 304.48 245.92 297.08 236.84 298.52Z" fill="#FF5319"/>
<path d="M253.36 321.28C256.92 325.64 271.56 334.44 279.72 333.04C287.88 331.64 307.76 323.44 305.84 311.72C303.92 299.96 286.92 285.6 280.2 283.2C273.48 280.8 262.48 282.48 257.68 286.8C252.88 291.08 249.04 316 253.36 321.28Z" fill="#F8C977"/>
<path d="M328.12 294.2C322.32 294.36 319 301.4 318.04 303.8C317.08 306.2 314.92 314.36 312.28 319.6C309.64 324.88 297.44 338.28 301.96 345.48C306.52 352.68 316.08 351.24 328.32 349.32C340.52 347.4 349.88 342.12 351.32 331.12C352.76 320.08 353.72 311.24 350.84 307.88C348 304.48 337.2 293.96 328.12 294.2Z" fill="#FCC219"/>
<path d="M300.56 366.08C305.6 363.2 325 348.12 332.2 348.36C339.4 348.6 346.08 353.88 348 358.2C349.92 362.52 350.64 374.72 346.56 378.08C342.48 381.44 329.08 383.36 323.32 383.84C317.56 384.32 297.16 386.68 295.76 377.12C294.56 368.96 300.56 366.08 300.56 366.08Z" fill="#FF8E00"/>
<path d="M370.28 331.56C370.04 342.84 388.96 350.24 394.72 350.48C400.48 350.72 413.16 347.6 419.88 338.72C424.28 332.88 428.28 323.64 425.88 317.88C423.48 312.12 420.36 307.08 412 306.36C403.6 305.64 385.4 304.92 380.6 308.28C375.8 311.68 370.36 327.52 370.28 331.56Z" fill="#FF5119"/>
<path d="M364.76 272.16C362.56 275.96 366.52 288.52 371.72 293.96C376.04 298.52 382.52 303.56 395.92 302.12C409.32 300.68 422.04 291.8 424.92 287.52C427.8 283.2 431.88 274.36 429.48 270.04C427.08 265.72 405.52 268.36 395.68 268.36C385.84 268.36 367.4 267.6 364.76 272.16Z" fill="#F8C977"/>
<path d="M413.88 211.52C413.44 215.84 421.56 223.04 424.92 225.4C428.28 227.8 438.08 230.44 441.44 228.28C444.8 226.12 445.32 212.8 443.84 209.12C441.92 204.32 433.28 199.28 427.8 200.48C422.28 201.72 414.36 207 413.88 211.52Z" fill="#F9CA76"/>
<path d="M407.4 214.64C400.92 218.72 391.6 232.84 389.2 237.16C386.8 241.48 381.76 251.52 390.4 254.88C399.04 258.24 415.56 255.36 421.56 252.48C427.56 249.6 439.04 243.6 439.28 235.96C439.52 228.32 434 222.8 427.32 218.48C420.64 214.16 414.24 210.36 407.4 214.64Z" fill="#FF8E00"/>
<path d="M431.6 263.76C435.36 268.12 440.48 267.6 448.12 266.16C455.8 264.72 465.84 261.36 464.88 254.4C463.92 247.44 456 242.44 452.2 240.76C448.36 239.08 435.2 239.8 431.36 244.6C427.56 249.4 428.52 260.16 431.6 263.76Z" fill="#FCC219"/>
</svg>
