<svg width="24" height="24" viewBox="0 0 24 24" fill="none" xmlns="http://www.w3.org/2000/svg">
<path d="M12.7519 7.00684L2.48438 9.11059C2.48438 9.11059 0.909384 10.53 0.819384 12.8887C0.776259 14.0343 0.967509 16.3125 3.04876 18.2568C4.66688 19.7681 7.37438 20.9868 11.8838 21.0843C16.0688 21.1743 18.8569 19.8356 20.535 18.4162C22.7756 16.5225 23.1263 14.2481 23.0794 12.7443C23.0044 10.3668 21.12 9.03184 20.9531 8.82371C20.7863 8.61559 12.7519 7.00684 12.7519 7.00684Z" fill="#D4D4D3"/>
<path d="M11.8294 20.1075C19.2994 20.1075 22.7812 16.0069 22.6987 12.2156C22.6144 8.36811 17.3137 5.63061 11.97 5.72811C2.64563 5.89686 1.35375 10.2506 1.2975 12.6094C1.23187 15.39 3.76875 20.1075 11.8294 20.1075Z" fill="#F7F6F5"/>
<path d="M2.25188 11.822C1.71938 14.042 3.37501 19.0689 11.9419 19.0689C19.89 19.0689 21.9394 14.492 21.9394 12.272C21.9394 9.99764 19.8056 6.00951 11.6325 6.45764C3.82313 6.88701 2.53876 10.6276 2.25188 11.822Z" fill="#DF7F14"/>
<path d="M17.3906 8.89272C17.475 9.0596 18.0863 9.21897 18.5475 9.33147C19.0088 9.44397 19.6369 9.56772 19.7719 9.30897C19.9069 9.05022 19.4681 8.38835 18.9413 8.1071C18.4125 7.82585 17.9138 8.12397 17.7956 8.2196C17.6156 8.36585 17.2669 8.6471 17.3906 8.89272Z" fill="#FF5119"/>
<path d="M3.00938 11.8613C2.72438 11.8613 2.39438 12.5363 2.6775 13.1982C2.96063 13.8601 3.33938 14.0963 3.47063 14.4395C3.6 14.7826 3.7425 15.6095 4.33313 16.1907C4.92375 16.7701 5.77688 16.8526 6.13125 16.9707C6.48563 17.0888 7.4325 17.8595 8.95875 18.0938C10.65 18.3545 12.9919 17.9045 12.9563 17.5501C12.9206 17.1976 10.4363 16.8751 9.975 16.7701C9.51375 16.6651 7.83375 16.3913 6.61688 15.7538C5.61 15.2251 4.79625 14.642 3.93188 13.352C3.31313 12.4276 3.17438 11.8613 3.00938 11.8613Z" fill="#F5B03E"/>
<path d="M8.30249 4.21332L7.27124 5.09457L5.70187 5.68895L5.24624 7.03707C5.24624 7.03707 4.49624 7.55645 4.46437 7.75332C4.43437 7.9502 3.98812 9.5852 3.98812 9.5852C3.98812 9.5852 3.87187 10.2208 3.88124 10.5077C3.89062 10.7946 4.94437 12.9583 8.44687 13.5733C11.9494 14.1883 14.1956 13.4289 15.7275 12.5664C17.1806 11.7471 17.445 10.8696 17.445 10.8696L17.37 9.32832C17.37 9.32832 16.8975 7.52082 16.7156 7.11582C16.5337 6.71082 15.165 5.21645 15.0787 5.19207C14.9925 5.1677 13.23 4.07457 13.23 4.07457L10.65 3.54395L8.30249 4.21332ZM2.97187 12.6789C2.79187 12.7652 2.90062 13.1496 3.13687 13.4927C3.37312 13.8358 3.57562 13.9858 3.74812 14.5108C3.92062 15.0358 4.28062 15.9433 4.93874 16.3202C5.59687 16.6971 5.98874 16.3821 6.00374 16.1796C6.02624 15.8758 5.64374 15.8514 4.96124 15.1689C4.27499 14.4827 3.77812 13.6333 3.51937 13.2264C3.36374 12.9789 3.15187 12.5927 2.97187 12.6789ZM7.32562 16.3746C7.09124 16.2339 6.73874 16.6089 7.03499 17.1489C7.33312 17.6889 7.84124 17.5633 7.87312 17.3758C7.92374 17.0702 7.63124 17.0083 7.53562 16.8189C7.44374 16.6333 7.57874 16.5264 7.32562 16.3746Z" fill="#FEFEFE"/>
<path d="M5.52189 7.23184C5.52189 7.23184 4.95376 7.42309 4.75314 7.99309C4.55064 8.56309 4.54876 9.31871 4.54876 9.31871C4.54876 9.31871 4.20001 9.57558 4.05189 9.96371C3.89626 10.3725 3.95439 10.6875 3.89064 10.6743C3.74814 10.6443 3.64876 10.0162 3.69751 9.70308C3.76126 9.30183 3.93376 9.14434 3.93376 9.14434C3.93376 9.14434 3.81376 8.26496 4.13814 7.62184C4.46064 6.97871 4.99876 6.65621 4.99876 6.65621C4.99876 6.65621 5.20314 5.78059 5.73376 5.34371C6.26439 4.90684 6.86626 4.83371 6.86626 4.83371C6.86626 4.83371 7.08189 4.18496 7.75502 3.81184C8.43001 3.43871 9.16689 3.61871 9.16689 3.61871C9.16689 3.61871 9.83814 3.06934 10.7625 3.06934C11.685 3.06934 12.1256 3.55121 12.1256 3.55121C12.1256 3.55121 12.9169 3.42934 13.5019 3.72934C14.0869 4.02934 14.4188 4.54496 14.4188 4.54496C14.4188 4.54496 15.0469 4.65746 15.5138 5.11309C16.005 5.59121 16.1944 6.18371 16.1944 6.18371C16.1944 6.18371 17.0381 6.64871 17.3231 7.34621C17.67 8.19746 17.445 9.03746 17.445 9.03746C17.445 9.03746 17.7994 9.47433 17.7413 10.11C17.685 10.7456 17.37 11.3193 17.2388 11.2762C17.2106 11.2668 17.3531 10.4175 17.235 9.98996C17.1394 9.64308 16.7719 9.11621 16.7719 9.11621C16.7719 9.11621 16.8244 8.13746 16.515 7.58246C16.2056 7.02934 15.6338 6.84746 15.6338 6.84746C15.6338 6.84746 15.4106 6.11996 14.985 5.73934C14.5594 5.35684 14.07 5.32684 14.07 5.32684C14.07 5.32684 13.6369 4.67059 13.1344 4.48121C12.6319 4.29184 12.1088 4.37809 12.1088 4.37809C12.1088 4.37809 11.4225 3.94121 10.7438 3.94496C9.99564 3.94871 9.44627 4.43809 9.44627 4.43809C9.44627 4.43809 8.80689 4.22434 8.19939 4.63871C7.59189 5.05496 7.42314 5.53871 7.42314 5.53871C7.42314 5.53871 6.71439 5.59684 6.25501 5.99809C5.79564 6.39934 5.52189 7.23184 5.52189 7.23184Z" fill="#B0B0B0"/>
<path d="M13.7212 6.41214C13.3912 6.41777 13.3706 6.87339 13.2131 7.14902C13.0725 7.39464 12.5437 7.51652 12.7537 7.86714C12.9412 8.18027 13.635 8.01339 13.8994 7.46027C14.085 7.07402 14.1412 6.40652 13.7212 6.41214ZM15.09 8.06964C14.7712 8.10339 14.8969 8.52714 14.7881 8.85339C14.6794 9.17964 14.2725 9.47777 14.4994 9.70089C14.7262 9.92402 15.255 9.56027 15.4144 8.96777C15.5737 8.37527 15.3506 8.04152 15.09 8.06964ZM13.3594 9.25652C12.9975 9.24902 13.0669 9.62964 12.8475 9.95214C12.6281 10.2728 12.3319 10.3871 12.4725 10.614C12.6131 10.8409 13.1381 10.8803 13.4569 10.2859C13.7606 9.71589 13.635 9.26214 13.3594 9.25652ZM13.6725 11.469C13.4212 11.8759 12.9937 11.8328 13.1287 12.1778C13.2675 12.5321 13.8994 12.384 14.205 11.9171C14.4619 11.5215 14.6625 10.8578 14.22 10.8371C13.8506 10.8221 13.8769 11.139 13.6725 11.469ZM11.2725 11.2215C11.01 11.2478 11.0081 11.574 10.8206 11.8159C10.6031 12.099 10.1906 12.1515 10.335 12.489C10.4794 12.8265 11.1187 12.7834 11.4619 12.3015C11.7506 11.8984 11.7712 11.1728 11.2725 11.2215Z" fill="#D4D4D3"/>
<path d="M4.11563 11.7804C3.94125 11.8329 3.735 12.3636 3.77813 12.5548C3.83438 12.8023 4.38375 13.3067 4.69875 13.2954C5.01375 13.2842 5.67563 12.8679 5.74313 12.7011C5.81063 12.5323 5.75438 12.1723 5.67563 12.0729C5.59688 11.9717 5.32688 11.6904 5.16938 11.6904C5.01188 11.6904 4.34063 11.7129 4.11563 11.7804Z" fill="#FF8E00"/>
<path d="M4.85626 13.3855C4.68001 13.6499 4.90126 13.9911 5.08126 14.2049C5.26126 14.4186 5.68689 14.9755 6.50814 14.8893C7.48501 14.788 7.82251 13.7886 7.82251 13.3611C7.82251 12.9336 7.68751 12.6655 7.36126 12.733C6.93564 12.8211 6.93376 13.1155 6.46314 13.228C5.99064 13.3405 5.10376 13.0161 4.85626 13.3855Z" fill="#FCC219"/>
<path d="M7.69876 14.5421C7.66876 14.8102 7.66501 15.3952 7.91251 15.4852C8.16001 15.5752 9.19314 15.4964 9.37314 15.4402C9.55314 15.3839 9.62064 14.9902 9.50814 14.8346C9.39564 14.6771 8.62126 14.0602 8.30626 14.0714C7.99126 14.0827 7.71001 14.4408 7.69876 14.5421Z" fill="#FF8E00"/>
<path d="M9.88874 15.8005C10.0912 15.9017 10.2712 16.6648 10.215 16.8448C10.1587 17.0248 9.95624 17.3736 9.85499 17.4055C9.75374 17.4392 8.85561 17.4505 8.48436 17.3942C8.16186 17.3455 7.79999 16.9667 7.83374 16.4736C7.86749 15.9786 8.22749 15.8005 8.75436 15.7555C9.28124 15.7105 9.88874 15.8005 9.88874 15.8005ZM11.1019 13.993C10.7794 14.0436 10.125 14.5648 10.1025 15.0036C10.08 15.4423 10.4175 15.7667 10.6856 15.7667C10.9556 15.7667 12.0112 14.6773 11.9437 14.4748C11.8762 14.2723 11.5275 13.9255 11.1019 13.993Z" fill="#FF5319"/>
<path d="M11.8763 15.0601C12.0431 15.2645 12.7294 15.677 13.1119 15.6114C13.4944 15.5458 14.4263 15.1614 14.3363 14.612C14.2463 14.0608 13.4494 13.3876 13.1344 13.2751C12.8194 13.1626 12.3038 13.2414 12.0788 13.4439C11.8538 13.6445 11.6738 14.8126 11.8763 15.0601Z" fill="#F8C977"/>
<path d="M15.3806 13.7902C15.1088 13.7977 14.9531 14.1277 14.9081 14.2402C14.8631 14.3527 14.7619 14.7352 14.6381 14.9809C14.5144 15.2284 13.9425 15.8565 14.1544 16.194C14.3681 16.5315 14.8163 16.464 15.39 16.374C15.9619 16.284 16.4006 16.0365 16.4681 15.5209C16.5356 15.0034 16.5806 14.589 16.4456 14.4315C16.3125 14.2721 15.8063 13.779 15.3806 13.7902Z" fill="#FCC219"/>
<path d="M14.0888 17.1599C14.325 17.0249 15.2344 16.318 15.5719 16.3292C15.9094 16.3405 16.2225 16.588 16.3125 16.7905C16.4025 16.993 16.4363 17.5649 16.245 17.7224C16.0538 17.8799 15.4256 17.9699 15.1556 17.9924C14.8856 18.0149 13.9294 18.1255 13.8638 17.6774C13.8075 17.2949 14.0888 17.1599 14.0888 17.1599Z" fill="#FF8E00"/>
<path d="M17.3569 15.5416C17.3456 16.0704 18.2325 16.4173 18.5025 16.4285C18.7725 16.4398 19.3669 16.2935 19.6819 15.8773C19.8881 15.6035 20.0756 15.1704 19.9631 14.9004C19.8506 14.6304 19.7044 14.3941 19.3125 14.3604C18.9188 14.3266 18.0656 14.2929 17.8406 14.4504C17.6156 14.6098 17.3606 15.3523 17.3569 15.5416Z" fill="#FF5119"/>
<path d="M17.0981 12.7576C16.995 12.9357 17.1806 13.5244 17.4244 13.7794C17.6269 13.9932 17.9306 14.2294 18.5588 14.1619C19.1869 14.0944 19.7831 13.6782 19.9181 13.4776C20.0531 13.2751 20.2444 12.8607 20.1319 12.6582C20.0194 12.4557 19.0088 12.5794 18.5475 12.5794C18.0863 12.5794 17.2219 12.5438 17.0981 12.7576Z" fill="#F8C977"/>
<path d="M19.4006 9.91458C19.38 10.1171 19.7606 10.4546 19.9181 10.5652C20.0756 10.6777 20.535 10.8015 20.6925 10.7002C20.85 10.599 20.8744 9.97458 20.805 9.80208C20.715 9.57708 20.31 9.34083 20.0531 9.39708C19.7944 9.4552 19.4231 9.7027 19.4006 9.91458Z" fill="#F9CA76"/>
<path d="M19.0969 10.0616C18.7931 10.2528 18.3562 10.9147 18.2437 11.1172C18.1312 11.3197 17.895 11.7903 18.3 11.9478C18.705 12.1053 19.4794 11.9703 19.7606 11.8353C20.0419 11.7003 20.58 11.4191 20.5912 11.061C20.6025 10.7028 20.3437 10.4441 20.0306 10.2416C19.7175 10.0391 19.4175 9.86095 19.0969 10.0616Z" fill="#FF8E00"/>
<path d="M20.2313 12.3637C20.4075 12.568 20.6475 12.5437 21.0056 12.4762C21.3656 12.4087 21.8363 12.2512 21.7913 11.9249C21.7463 11.5987 21.375 11.3643 21.1969 11.2855C21.0169 11.2068 20.4 11.2405 20.22 11.4655C20.0419 11.6905 20.0869 12.1949 20.2313 12.3637Z" fill="#FCC219"/>
</svg>
